<svg height="146.8" viewBox="0 0 146.8 146.8" width="146.8" xmlns="http://www.w3.org/2000/svg" xmlns:xlink="http://www.w3.org/1999/xlink"><filter id="a" color-interpolation-filters="sRGB" filterUnits="userSpaceOnUse" height="83" width="85" x="30.21" y="16.4"><feFlood flood-color="#fff" result="bg"/><feBlend in="SourceGraphic" in2="bg"/></filter><mask id="b" height="83" maskUnits="userSpaceOnUse" width="85" x="30.21" y="16.4"><g filter="url(#a)"><image height="83" transform="translate(30.2 16.4)" width="85" xlink:href="decadently-yours-logo1.png"/></g></mask><circle cx="73.4" cy="73.4" fill="none" r="64.8"/><path d="m43.4 95.6c8.1 7.1 17.9 7.9 26.6 2.8a14.5 14.5 0 0 0 3.7-3.1 31.4 31.4 0 0 0 4.3 3.5c6.3 4 17.8 4.1 23.9-.3-4 8.7-6.5 17.1-7 25 0 0-15.2 8.5-41.4.1-1.4-9.1-.3-12.3-10.1-28z" fill="#c59fed"/><g mask="url(#b)"><path d="m67.2 18.8c-2.9-.1-2.9 4.6 0 4.9a2.2 2.2 0 0 0 2.4-2.6c-.1-.1-.1-.2-.2-.1s2.6.5 3.3 1.6a5.8 5.8 0 0 1 -.5 6.5c-1.3 1.7-3.3 2.6-4.8 4.1a11.4 11.4 0 0 0 -3 6.1 9.6 9.6 0 0 0 3.6 8.5 11.2 11.2 0 0 0 9 2.2 6.1 6.1 0 0 0 4-2.3c1.3-2 .5-4.9-1.4-6.4a10 10 0 0 0 -6.7-2.1 19.6 19.6 0 0 0 -10.6 2.6c-4.4 2.5-8.2 7.8-8 13.1a7.2 7.2 0 0 0 6.6 6.8 9.3 9.3 0 0 0 7.6-2.4c5.3-5.3 16-7.6 20-6.6 14.3 4.9 4.4 18.8-10.1 11.2-7.9-4-12.6-12.4-22.7-11.7-19.3.9-16.7 22.1-2.7 21.8 18.1-1.8 22.5-10 35.4-13.2 28.5-7.6 26.4 28.6-5 14.7-14.7-5.9-26-15.2-40-12.1s-14 18.8 2.2 21.4c11.6 1.9 22.3-5.1 33.1-8.5 4.2-1.4 8.6-3 13.1-3.2 6.1-.3 12.4 3 12.6 9.7a10 10 0 0 1 -3 7.5 13.6 13.6 0 0 1 -6.6 3.2 22.3 22.3 0 0 1 -10.9 0c-7.9-2.2-13.7-8.8-20.4-13.4a21.4 21.4 0 0 0 -8.6-3.8 10.8 10.8 0 0 0 -8.8 2.5 9.4 9.4 0 0 0 -1.9 9.4 12.3 12.3 0 0 0 6.7 7.1 18.6 18.6 0 0 0 9.9 1.2 18.9 18.9 0 0 0 10.1-4.4 13.6 13.6 0 0 0 4.8-9.7 8.2 8.2 0 0 0 -2.1-5.8c-2.2-2.3-6.1-2.4-8.9-.8a7.8 7.8 0 0 1 5.2-.6 6.2 6.2 0 0 1 3.6 3.8 8.3 8.3 0 0 1 -.2 5.4 13.5 13.5 0 0 1 -7.6 8.1 16.3 16.3 0 0 1 -11.3.3c-2.5-.8-5-2.3-6.2-4.6a6.9 6.9 0 0 1 3-9.2c3.3-1.5 7.1.1 10.2 2a104.5 104.5 0 0 1 11.7 8.4c3.6 2.8 7.4 5.7 11.8 6.8a22.4 22.4 0 0 0 11.2-.3 19.6 19.6 0 0 0 8.6-4.1 10.6 10.6 0 0 0 1.9-2.3 14.3 14.3 0 0 0 2.1-7.8 11.5 11.5 0 0 0 -1.5-6.6 9.8 9.8 0 0 0 -6.6-4.2 21.5 21.5 0 0 0 -8 0c-13 2.1-24.8 8.8-37.6 11.5a25.6 25.6 0 0 1 -8.7.6 11.1 11.1 0 0 1 -7.4-4.1 7.2 7.2 0 0 1 -1.6-4.4c-.2-3.5 2.4-6.7 5.6-8.1s6.9-1.4 10.4-.9c9.8 1.5 18.1 6.6 26.9 10.8a65.4 65.4 0 0 0 8.7 3.4c5 1.6 10.5 2.3 15.4.4s8.8-6.8 8.1-12a11.6 11.6 0 0 0 -5.6-8 19.1 19.1 0 0 0 -9.7-2.3c-11.8-.1-22.2 7-33.2 11.3a30.2 30.2 0 0 1 -11.3 2.4 7.9 7.9 0 0 1 -5.2-1.9 6.7 6.7 0 0 1 -1.6-5.1 10.8 10.8 0 0 1 9.1-10 16.1 16.1 0 0 1 9.3 2.1c2.8 1.6 5.4 3.6 8.1 5.4a32.5 32.5 0 0 0 14.3 5.4c4.3.4 9.3-.8 11.3-4.6s-.3-9-4-11.3-8.6-2.3-12.9-1.4a35.1 35.1 0 0 0 -13.8 5.8 18.6 18.6 0 0 1 -4.3 2.5 4.8 4.8 0 0 1 -4.8-.5 4.9 4.9 0 0 1 -1.5-4.2c.9-7.5 11.6-13.5 18.8-12.3 2.9.5 4.7 4.2 2.3 6.4s-4.4 1.2-6.1.3a8.1 8.1 0 0 1 -3.6-3.7 12.4 12.4 0 0 1 -.9-6 8.2 8.2 0 0 1 1.6-3.4 6.9 6.9 0 0 1 1.3-1.1l1.3-1.2a19.2 19.2 0 0 0 1.8-2.2 8.8 8.8 0 0 0 1.7-4.1 5.5 5.5 0 0 0 -.5-3.3 6.7 6.7 0 0 0 -1.9-2.5 11.7 11.7 0 0 0 -2.7-1.5 5.2 5.2 0 0 0 -2.5-.3z" fill="#c59fed"/></g><g fill="none" stroke-miterlimit="10"><circle cx="72" cy="140.8" r="3.6" stroke="#9971b7" stroke-width="1.5"/><circle cx="79" cy="140.6" r="3.6" stroke="#9971b7" stroke-width="1.5"/><circle cx="86" cy="139.6" r="3.6" stroke="#9971b7" stroke-width="1.5"/><circle cx="92.9" cy="137.9" r="3.6" stroke="#9971b7" stroke-width="1.5"/><circle cx="99.5" cy="135.5" r="3.6" stroke="#9971b7" stroke-width="1.5"/><circle cx="105.9" cy="132.5" r="3.6" stroke="#9971b7" stroke-width="1.5"/><circle cx="111.9" cy="128.7" r="3.6" stroke="#9971b7" stroke-width="1.5"/><circle cx="117.4" cy="124.4" r="3.6" stroke="#9971b7" stroke-width="1.5"/><circle cx="122.5" cy="119.5" r="3.6" stroke="#9971b7" stroke-width="1.5"/><circle cx="127.1" cy="114.1" r="3.6" stroke="#9971b7" stroke-width="1.5"/><circle cx="131" cy="108.3" r="3.6" stroke="#9971b7" stroke-width="1.5"/><circle cx="134.4" cy="102.1" r="3.6" stroke="#9971b7" stroke-width="1.5"/><circle cx="137" cy="95.6" r="3.6" stroke="#9971b7" stroke-width="1.5"/><circle cx="139" cy="88.8" r="3.6" stroke="#9971b7" stroke-width="1.5"/><circle cx="140.3" cy="81.8" r="3.6" stroke="#9971b7" stroke-width="1.5"/><circle cx="140.8" cy="74.8" r="3.6" stroke="#9971b7" stroke-width="1.5"/><circle cx="140.6" cy="67.8" r="3.6" stroke="#9971b7" stroke-width="1.5"/><circle cx="139.6" cy="60.8" r="3.6" stroke="#9971b7" stroke-width="1.5"/><circle cx="137.9" cy="53.9" r="3.6" stroke="#9971b7" stroke-width="1.5"/><circle cx="135.5" cy="47.3" r="3.6" stroke="#9971b7" stroke-width="1.5"/><circle cx="132.5" cy="40.9" r="3.6" stroke="#9971b7" stroke-width="1.5"/><circle cx="128.7" cy="34.9" r="3.6" stroke="#9971b7" stroke-width="1.5"/><circle cx="124.4" cy="29.4" r="3.6" stroke="#9971b7" stroke-width="1.5"/><circle cx="119.5" cy="24.3" r="3.6" stroke="#9971b7" stroke-width="1.5"/><circle cx="114.1" cy="19.7" r="3.6" stroke="#9971b7" stroke-width="1.5"/><circle cx="108.3" cy="15.8" r="3.6" stroke="#9971b7" stroke-width="1.5"/><circle cx="102.1" cy="12.4" r="3.6" stroke="#9971b7" stroke-width="1.5"/><circle cx="95.6" cy="9.8" r="3.6" stroke="#9971b7" stroke-width="1.5"/><circle cx="88.8" cy="7.8" r="3.6" stroke="#9971b7" stroke-width="1.5"/><circle cx="81.8" cy="6.5" r="3.6" stroke="#9971b7" stroke-width="1.5"/><circle cx="74.8" cy="6" r="3.6" stroke="#9971b7" stroke-width="1.5"/><circle cx="67.8" cy="6.2" r="3.6" stroke="#9971b7" stroke-width="1.5"/><circle cx="60.8" cy="7.2" r="3.6" stroke="#9971b7" stroke-width="1.5"/><circle cx="53.9" cy="8.9" r="3.6" stroke="#9971b7" stroke-width="1.5"/><circle cx="47.3" cy="11.3" r="3.6" stroke="#9971b7" stroke-width="1.5"/><circle cx="40.9" cy="14.3" r="3.6" stroke="#9971b7" stroke-width="1.5"/><circle cx="34.9" cy="18.1" r="3.6" stroke="#9971b7" stroke-width="1.5"/><circle cx="29.4" cy="22.4" r="3.6" stroke="#9971b7" stroke-width="1.5"/><circle cx="24.3" cy="27.3" r="3.6" stroke="#9971b7" stroke-width="1.5"/><circle cx="19.7" cy="32.6" r="3.6" stroke="#9971b7" stroke-width="1.5"/><circle cx="15.8" cy="38.5" r="3.6" stroke="#9971b7" stroke-width="1.5"/><circle cx="12.4" cy="44.7" r="3.6" stroke="#9971b7" stroke-width="1.5"/><circle cx="9.8" cy="51.2" r="3.6" stroke="#9971b7" stroke-width="1.5"/><circle cx="7.8" cy="58" r="3.6" stroke="#9971b7" stroke-width="1.5"/><circle cx="6.5" cy="64.9" r="3.6" stroke="#9971b7" stroke-width="1.5"/><circle cx="6" cy="72" r="3.6" stroke="#9971b7" stroke-width="1.5"/><circle cx="6.2" cy="79" r="3.6" stroke="#9971b7" stroke-width="1.5"/><circle cx="7.2" cy="86" r="3.6" stroke="#9971b7" stroke-width="1.5"/><circle cx="8.9" cy="92.9" r="3.6" stroke="#9971b7" stroke-width="1.5"/><circle cx="11.3" cy="99.5" r="3.6" stroke="#9971b7" stroke-width="1.5"/><circle cx="14.3" cy="105.9" r="3.6" stroke="#9971b7" stroke-width="1.5"/><circle cx="18.1" cy="111.9" r="3.6" stroke="#9971b7" stroke-width="1.5"/><circle cx="22.4" cy="117.4" r="3.6" stroke="#9971b7" stroke-width="1.5"/><circle cx="27.3" cy="122.5" r="3.6" stroke="#9971b7" stroke-width="1.5"/><circle cx="32.6" cy="127.1" r="3.6" stroke="#9971b7" stroke-width="1.5"/><circle cx="38.5" cy="131" r="3.6" stroke="#9971b7" stroke-width="1.5"/><circle cx="44.7" cy="134.4" r="3.6" stroke="#9971b7" stroke-width="1.5"/><circle cx="51.2" cy="137" r="3.6" stroke="#9971b7" stroke-width="1.5"/><circle cx="58" cy="139" r="3.6" stroke="#9971b7" stroke-width="1.5"/><circle cx="64.9" cy="140.3" r="3.6" stroke="#9971b7" stroke-width="1.5"/><circle cx="73.4" cy="73.4" r="71.4" stroke="#c59fed" stroke-width="4"/></g><path d="m59.8 125.4a142.5 142.5 0 0 0 -4.4-24 24.1 24.1 0 0 1 -12-5.8c7.8 11.6 9.3 20.4 10.1 28a46.7 46.7 0 0 0 6.3 1.8z" fill="#9971b7"/><path d="m79.2 127.2a158.8 158.8 0 0 1 3.2-26.5 19.6 19.6 0 0 1 -8.7-5.4 20.5 20.5 0 0 1 -6.5 4.6 185.1 185.1 0 0 1 1.3 27 63.5 63.5 0 0 0 10.7.3z" fill="#9971b7"/><path d="m89.6 125.5a144.2 144.2 0 0 1 4.6-24.1 18.1 18.1 0 0 0 7.7-2.9c-4 8.9-6.7 17.3-7 25a43.6 43.6 0 0 1 -5.3 2z" fill="#9971b7"/><path d="m59.8 125.3a143.2 143.2 0 0 0 -4.4-23.9" fill="none" stroke="#121212" stroke-linecap="square" stroke-miterlimit="10" stroke-width="2"/><path d="m67.2 99.9a185.1 185.1 0 0 1 1.3 27" fill="none" stroke="#121212" stroke-linecap="square" stroke-miterlimit="10" stroke-width="2"/><path d="m82.4 100.7a158.8 158.8 0 0 0 -3.2 26.5" fill="none" stroke="#121212" stroke-linecap="square" stroke-miterlimit="10" stroke-width="2"/><path d="m94.2 101.4a144.2 144.2 0 0 0 -4.6 24.1" fill="none" stroke="#121212" stroke-linecap="square" stroke-miterlimit="10" stroke-width="2"/></svg>