<?xml version="1.0" encoding="utf-8"?>
<!-- Generator: Adobe Illustrator 25.0.1, SVG Export Plug-In . SVG Version: 6.00 Build 0)  -->
<svg version="1.1" id="Layer_1" xmlns="http://www.w3.org/2000/svg" xmlns:xlink="http://www.w3.org/1999/xlink" x="0px" y="0px"
	 viewBox="0 0 94.5 93.6" style="enable-background:new 0 0 94.5 93.6;" xml:space="preserve">
<style type="text/css">
	.st0{display:none;}
	.st1{display:inline;fill:#5FB67C;}
	.st2{stroke:#FFFFFF;stroke-width:3;stroke-linecap:round;stroke-linejoin:round;}
	.st3{fill:#FFFFFF;}
</style>
<g id="Facebook" transform="translate(1.478 1.478)">
	<g id="Group_36">
		<g id="Group_34" class="st0">
			<path id="Path_51" class="st1" d="M82.2,89.6H9.3c-4.6,0-8.3-3.7-8.3-8.3v-72C1,4.7,4.7,1,9.3,1h72.9c4.6,0,8.3,3.7,8.3,8.3v72
				C90.5,85.9,86.8,89.6,82.2,89.6z M63.3,28.9H72V17.2l-16.1,0.3c-4.7,1.1-7.5,3.6-7.9,7.9v12.3h-8.2v10.5h8v30h12.3V48.5h11.1
				V38.1H60.5v-7C60.5,29.5,61.4,29,63.3,28.9L63.3,28.9z"/>
		</g>
		<g id="Group_35" transform="translate(0 0.001)">
			<path id="Rectangle_19" class="st2" d="M5.2,1h81.2c2.3,0,4.2,1.9,4.2,4.2v80.3c0,2.3-1.9,4.2-4.2,4.2H5.2
				c-2.3,0-4.2-1.9-4.2-4.2V5.2C1,2.9,2.9,1,5.2,1z"/>
			<path id="Path_52" class="st3" d="M71.9,17.2V29h-8.7c-1.9,0-2.8,0.6-2.8,2.2v7h10.8v10.4h-11v29.7H47.8v-30h-8V37.7H48V25.4
				c0.4-4.3,3.2-6.7,7.9-7.9L71.9,17.2z"/>
		</g>
	</g>
</g>
</svg>
